<svg id="SvgjsSvg1001" width="288" height="288" xmlns="http://www.w3.org/2000/svg" version="1.1" xmlns:xlink="http://www.w3.org/1999/xlink" xmlns:svgjs="http://svgjs.com/svgjs"><defs id="SvgjsDefs1002"></defs><g id="SvgjsG1008" transform="matrix(1,0,0,1,0,0)"><svg xmlns="http://www.w3.org/2000/svg" width="288" height="288" version="1.0" viewBox="0 0 512 512"><path d="M2319 4866 c-2 -2 -44 -6 -94 -10 -132 -10 -433 -70 -533 -107 -29-10 -59 -19 -68 -19 -27 0 -248 -90 -369 -152 -331 -166 -567 -359 -769 -628
-85 -112 -103 -143 -149 -247 -45 -103 -72 -203 -91 -342 -15 -103 -15 -124
-1 -215 28 -193 78 -331 170 -471 81 -124 198 -247 332 -349 l63 -47 0 -450
c0 -247 2 -449 5 -449 7 0 49 26 229 144 77 51 257 168 399 260 l258 168 116
-11 c64 -7 118 -10 120 -7 2 2 -1 41 -8 86 -80 553 471 1032 1252 1089 146 10
249 7 434 -15 147 -17 340 -72 499 -141 63 -27 81 -31 88 -21 5 7 34 63 63
123 95 194 139 418 117 598 -44 356 -228 635 -567 862 -102 69 -294 169 -380
199 -321 112 -572 155 -911 156 -110 0 -203 -2 -205 -4z" transform="matrix(.1 0 0 -.1 0 512)" fill="#6666ff" class="color000 svgShape"></path></svg></g></svg>